# xmcd
#
# Track frame offsets: 
#        180
#        16586
#        30249
#        41910
#        50219
#        71177
#        88195
#        104054
#        118175
#        131021
#        144007
#        158005
#        170480
#        189399
#
# Disc length: 2677 seconds
#
# Revision: 3
# Processed by: cddbd v1.5.1PL0 Copyright (c) Steve Scherf et al.
# Submitted via: ExactAudioCopy v0.95a5
#
DISCID=c10a730e
DTITLE=Valiant Swart - Dorpstraat Revisited
DYEAR=2002
DGENRE=
TTITLE0=Jesus Kwêla
TTITLE1=How can you tune me nooit when I tune you it's cool
TTITLE2=Die skoene moet jy dra
TTITLE3=Die Brannewyn Skoffel
TTITLE4=Boomtown Hotel
TTITLE5=Oor 'n koue oseaan
TTITLE6=Troubles be gone
TTITLE7=45 Moon
TTITLE8=Bloemfontein
TTITLE9=Dis my kruis
TTITLE10=Then away
TTITLE11=Oupa's Pace
TTITLE12=Samesyn
TTITLE13=Sweet Stellenganga
EXTD=
EXTT0=
EXTT1=
EXTT2=
EXTT3=
EXTT4=
EXTT5=
EXTT6=
EXTT7=
EXTT8=
EXTT9=
EXTT10=
EXTT11=
EXTT12=
EXTT13=
PLAYORDER=
